<?xml version="1.0" encoding="iso-8859-1"?>
<!-- Generator: Adobe Illustrator 19.0.0, SVG Export Plug-In . SVG Version: 6.00 Build 0)  -->
<svg version="1.1" id="Layer_1" xmlns="http://www.w3.org/2000/svg" xmlns:xlink="http://www.w3.org/1999/xlink" x="0px" y="0px"
	 viewBox="0 0 512 512" style="enable-background:new 0 0 512 512;" xml:space="preserve">
<g>
	<g>
		<path d="M500.233,11.788c-7.6-7.601-17.705-11.787-28.453-11.787c-10.748,0-20.853,4.186-28.453,11.786l-102.86,102.86
			c-41.714-21.471-94.282-14.785-129.192,20.121l-75.559,75.559c-34.907,34.91-41.591,87.478-20.119,129.192L11.787,443.327
			C4.186,450.927,0,461.033,0,471.779c0,10.749,4.186,20.854,11.786,28.454c7.845,7.845,18.149,11.766,28.453,11.766
			c10.305,0,20.609-3.922,28.454-11.766L172.476,396.45c15.512,8.013,32.823,12.284,50.812,12.284
			c29.648,0,57.491-11.518,78.404-32.431l75.559-75.559c20.914-20.914,32.431-48.758,32.431-78.404
			c0-17.99-4.271-35.3-12.284-50.812L500.234,68.692C515.922,53.005,515.922,27.476,500.233,11.788z M154.684,229.295l75.559-75.559
			c16.388-16.388,37.909-24.579,59.437-24.579c10.376,0,20.75,1.914,30.551,5.726l-21.775,21.775
			c-17.422-2.685-35.852,2.656-49.243,16.046l-75.559,75.561c-13.392,13.392-18.733,31.821-16.046,49.242l-21.772,21.773
			C124.122,289.149,130.398,253.582,154.684,229.295z M229.928,282.093c-11.207-11.207-27.43-14.403-41.504-9.601
			c1.176-1.866,2.573-3.632,4.198-5.258l75.558-75.559c1.387-1.387,2.884-2.597,4.452-3.659c-5.004,14.168-1.854,30.599,9.46,41.913
			c7.845,7.845,18.149,11.766,28.453,11.766c4.558,0,9.115-0.771,13.461-2.306c-1.06,1.567-2.274,3.061-3.66,4.449l-75.559,75.559
			c-1.624,1.624-3.391,3.022-5.257,4.198C244.329,309.521,241.133,293.298,229.928,282.093z M49.723,481.265
			c-5.228,5.23-13.739,5.232-18.969,0h-0.001c-2.534-2.534-3.929-5.902-3.929-9.484c0-3.581,1.395-6.951,3.93-9.483l161.235-161.235
			c2.614-2.616,6.049-3.923,9.484-3.923s6.869,1.308,9.483,3.923c5.23,5.228,5.23,13.739,0,18.969L49.723,481.265z M358.283,281.776
			l-75.559,75.559c-15.845,15.846-36.954,24.574-59.436,24.574c-10.636,0-20.966-1.957-30.575-5.695l21.793-21.793
			c2.908,0.451,5.844,0.681,8.781,0.681c14.655,0,29.31-5.578,40.467-16.735l75.559-75.559
			c13.392-13.392,18.734-31.821,16.047-49.242l21.8-21.8c3.738,9.609,5.695,19.937,5.695,30.575
			C382.857,244.822,374.129,265.93,358.283,281.776z M481.264,49.724L320.029,210.958c-5.227,5.227-13.738,5.23-18.969,0
			c-5.23-5.228-5.23-13.739,0-18.969L462.296,30.755c2.534-2.534,5.902-3.929,9.483-3.929c3.583,0,6.952,1.395,9.484,3.93
			C486.494,35.985,486.494,44.495,481.264,49.724z"/>
	</g>
</g>
<g>
</g>
<g>
</g>
<g>
</g>
<g>
</g>
<g>
</g>
<g>
</g>
<g>
</g>
<g>
</g>
<g>
</g>
<g>
</g>
<g>
</g>
<g>
</g>
<g>
</g>
<g>
</g>
<g>
</g>
</svg>
